# xmcd CD database file
#
# Track frame offsets:
#	150
#	18912
#	37622
#	64992
#
# Disc length: 1226 seconds
#
# Revision: 0
# Processed by: cddbd v1.5.1PL2 Copyright (c) Steve Scherf et al.
# Submitted via: CDex 1.51
#
DISCID=2504c804
DTITLE=桂雀三郎 With まんぷくブラザーズ - ヨーデル食べ放題
DYEAR=1996
DGENRE=Comedy
TTITLE0=ヨーデル食べ放題
TTITLE1=ヨーデル食べ放題(カラオケ)
TTITLE2=君に捧げる愛のネタ
TTITLE3=君に捧げる愛のネタ(カラオケ)
EXTD=YEAR: 1996
EXTT0=
EXTT1=
EXTT2=
EXTT3=
PLAYORDER=
